ffmpeg started on 2025-05-24 at 14:43:52
Report written to "D:\Convert\FFMetrics\reports\psnr_report-6.txt"
Log level: 32
Command line:
ffmpeg -hide_banner -nostdin -i "G:\\\xc0\xed\xe8\xec\xe5\\\xce\xed\xe3\xee\xe8\xed\xe3\xe8\\!_33_\xc7\xe8\xec\xe0_2024\\DreamCast\\\xc2\xf0\xe5\xec\xff \xef\xfb\xf2\xee\xea, \xef\xf0\xe8\xed\xf6\xe5\xf1\xf1\xe0!\\[DC] Hime-sama Goumon no Jikan Desu - 08_Telegram_HEVC.mkv" -i "G:\\\xc0\xed\xe8\xec\xe5\\\xce\xed\xe3\xee\xe8\xed\xe3\xe8\\!_33_\xc7\xe8\xec\xe0_2024\\DreamCast\\\xc2\xf0\xe5\xec\xff \xef\xfb\xf2\xee\xea, \xef\xf0\xe8\xed\xf6\xe5\xf1\xf1\xe0!\\[DC] Hime-sama Goumon no Jikan Desu - 08_Telegram.mp4" -lavfi "[0:v]settb=AVTB,setpts=PTS-STARTPTS,format=pix_fmts=yuv420p10,fps=24000/1001,scale=1920:1080:flags=bicubic[main];[1:v]settb=AVTB,setpts=PTS-STARTPTS,format=pix_fmts=yuv420p,fps=24000/1001,scale=1920:1080:flags=bicubic[ref];[main][ref]psnr=eof_action=endall:stats_file='D\\:/Convert/FFMetrics/logs/psnr_logfile-6.txt'" -f null -
Input #0, matroska,webm, from 'G:\Аниме\Онгоинги\!_33_Зима_2024\DreamCast\Время пыток, принцесса!\[DC] Hime-sama Goumon no Jikan Desu - 08_Telegram_HEVC.mkv':
  Metadata:
    COMPATIBLE_BRANDS: isomiso2avc1mp41
    MAJOR_BRAND     : isom
    MINOR_VERSION   : 512
    ENCODER         : Lavf61.7.100
  Duration: 00:23:46.69, start: -0.021000, bitrate: 1037 kb/s
  Stream #0:0: Video: hevc (Main 10), yuv420p10le(tv, bt709, progressive), 1920x1080 [SAR 1:1 DAR 16:9], 23.98 fps, 23.98 tbr, 1k tbn (default)
      Metadata:
        HANDLER_NAME    : VideoHandler
        VENDOR_ID       : [0][0][0][0]
        ENCODER         : Lavc61.19.100 libx265
        BPS             : 839961
        DURATION        : 00:23:46.591708333
        NUMBER_OF_FRAMES: 34204
        NUMBER_OF_BYTES : 149785209
        _STATISTICS_WRITING_APP: mkvpropedit v66.0.0 ('Josie') 64-bit
        _STATISTICS_WRITING_DATE_UTC: 2025-05-21 15:34:54
        _STATISTICS_TAGS: BPS DURATION NUMBER_OF_FRAMES NUMBER_OF_BYTES
  Stream #0:1: Audio: aac (LC), 48000 Hz, stereo, fltp (default)
      Metadata:
        HANDLER_NAME    : SoundHandler
        VENDOR_ID       : [0][0][0][0]
        ENCODER         : Lavc61.19.100 aac
        BPS             : 193615
        DURATION        : 00:23:46.688000000
        NUMBER_OF_FRAMES: 66877
        NUMBER_OF_BYTES : 34528593
        _STATISTICS_WRITING_APP: mkvpropedit v66.0.0 ('Josie') 64-bit
        _STATISTICS_WRITING_DATE_UTC: 2025-05-21 15:34:54
        _STATISTICS_TAGS: BPS DURATION NUMBER_OF_FRAMES NUMBER_OF_BYTES
Input #1, mov,mp4,m4a,3gp,3g2,mj2, from 'G:\Аниме\Онгоинги\!_33_Зима_2024\DreamCast\Время пыток, принцесса!\[DC] Hime-sama Goumon no Jikan Desu - 08_Telegram.mp4':
  Metadata:
    major_brand     : isom
    minor_version   : 512
    compatible_brands: isomiso2avc1mp41
    encoder         : Lavf60.16.100
  Duration: 00:23:46.66, start: 0.000000, bitrate: 3526 kb/s
  Stream #1:0[0x1](und): Video: h264 (High) (avc1 / 0x31637661), yuv420p(tv, bt709, progressive), 1920x1080 [SAR 1:1 DAR 16:9], 3378 kb/s, 23.98 fps, 23.98 tbr, 24k tbn (default)
      Metadata:
        handler_name    : VideoHandler
        vendor_id       : [0][0][0][0]
        encoder         : Lavc60.31.102 h264_qsv
  Stream #1:1[0x2](und): Audio: aac (HE-AACv2) (mp4a / 0x6134706D), 48000 Hz, stereo, fltp, 144 kb/s (default)
      Metadata:
        handler_name    : SoundHandler
        vendor_id       : [0][0][0][0]
Stream mapping:
  Stream #0:0 (hevc) -> settb:default
  Stream #1:0 (h264) -> settb:default
  psnr:default -> Stream #0:0 (wrapped_avframe)
  Stream #0:1 -> #0:1 (aac (native) -> pcm_s16le (native))
Output #0, null, to 'pipe:':
  Metadata:
    COMPATIBLE_BRANDS: isomiso2avc1mp41
    MAJOR_BRAND     : isom
    MINOR_VERSION   : 512
    encoder         : Lavf61.7.100
  Stream #0:0: Video: wrapped_avframe, yuv420p10le(tv, bt709, progressive), 1920x1080 [SAR 1:1 DAR 16:9], q=2-31, 200 kb/s, 23.98 fps, 23.98 tbn
      Metadata:
        encoder         : Lavc61.19.100 wrapped_avframe
  Stream #0:1: Audio: pcm_s16le, 48000 Hz, stereo, s16, 1536 kb/s (default)
      Metadata:
        HANDLER_NAME    : SoundHandler
        VENDOR_ID       : [0][0][0][0]
        _STATISTICS_TAGS: BPS DURATION NUMBER_OF_FRAMES NUMBER_OF_BYTES
        BPS             : 193615
        DURATION        : 00:23:46.688000000
        NUMBER_OF_FRAMES: 66877
        NUMBER_OF_BYTES : 34528593
        _STATISTICS_WRITING_APP: mkvpropedit v66.0.0 ('Josie') 64-bit
        _STATISTICS_WRITING_DATE_UTC: 2025-05-21 15:34:54
        encoder         : Lavc61.19.100 pcm_s16le
frame=  166 fps=0.0 q=-0.0 size=N/A time=00:00:06.92 bitrate=N/A speed=13.6x    frame=  437 fps=422 q=-0.0 size=N/A time=00:00:18.22 bitrate=N/A speed=17.6x    frame=  720 fps=466 q=-0.0 size=N/A time=00:00:30.03 bitrate=N/A speed=19.4x    frame=  998 fps=482 q=-0.0 size=N/A time=00:00:41.62 bitrate=N/A speed=20.1x    frame= 1286 fps=498 q=-0.0 size=N/A time=00:00:53.63 bitrate=N/A speed=20.8x    frame= 1585 fps=513 q=-0.0 size=N/A time=00:01:06.10 bitrate=N/A speed=21.4x    frame= 1848 fps=513 q=-0.0 size=N/A time=00:01:17.07 bitrate=N/A speed=21.4x    frame= 2123 fps=515 q=-0.0 size=N/A time=00:01:28.54 bitrate=N/A speed=21.5x    frame= 2411 fps=520 q=-0.0 size=N/A time=00:01:40.55 bitrate=N/A speed=21.7x    frame= 2692 fps=522 q=-0.0 size=N/A time=00:01:52.27 bitrate=N/A speed=21.8x    frame= 2958 fps=521 q=-0.0 size=N/A time=00:02:03.37 bitrate=N/A speed=21.7x    frame= 3236 fps=523 q=-0.0 size=N/A time=00:02:14.96 bitrate=N/A speed=21.8x    frame= 3518 fps=525 q=-0.0 size=N/A time=00:02:26.72 bitrate=N/A speed=21.9x    frame= 3790 fps=525 q=-0.0 size=N/A time=00:02:38.07 bitrate=N/A speed=21.9x    frame= 4034 fps=521 q=-0.0 size=N/A time=00:02:48.25 bitrate=N/A speed=21.7x    frame= 4310 fps=523 q=-0.0 size=N/A time=00:02:59.76 bitrate=N/A speed=21.8x    frame= 4585 fps=523 q=-0.0 size=N/A time=00:03:11.23 bitrate=N/A speed=21.8x    frame= 4814 fps=519 q=-0.0 size=N/A time=00:03:20.78 bitrate=N/A speed=21.6x    frame= 5016 fps=512 q=-0.0 size=N/A time=00:03:29.20 bitrate=N/A speed=21.3x    frame= 5214 fps=505 q=-0.0 size=N/A time=00:03:37.46 bitrate=N/A speed=21.1x    frame= 5459 fps=504 q=-0.0 size=N/A time=00:03:47.68 bitrate=N/A speed=  21x    frame= 5706 fps=503 q=-0.0 size=N/A time=00:03:57.98 bitrate=N/A speed=  21x    frame= 5923 fps=499 q=-0.0 size=N/A time=00:04:07.03 bitrate=N/A speed=20.8x    frame= 6121 fps=495 q=-0.0 size=N/A time=00:04:15.29 bitrate=N/A speed=20.6x    frame= 6317 fps=490 q=-0.0 size=N/A time=00:04:23.47 bitrate=N/A speed=20.4x    frame= 6494 fps=484 q=-0.0 size=N/A time=00:04:30.85 bitrate=N/A speed=20.2x    frame= 6704 fps=482 q=-0.0 size=N/A time=00:04:39.61 bitrate=N/A speed=20.1x    frame= 6954 fps=481 q=-0.0 size=N/A time=00:04:50.03 bitrate=N/A speed=20.1x    frame= 7237 fps=484 q=-0.0 size=N/A time=00:05:01.84 bitrate=N/A speed=20.2x    frame= 7522 fps=486 q=-0.0 size=N/A time=00:05:13.73 bitrate=N/A speed=20.3x    frame= 7784 fps=487 q=-0.0 size=N/A time=00:05:24.65 bitrate=N/A speed=20.3x    frame= 8075 fps=489 q=-0.0 size=N/A time=00:05:36.79 bitrate=N/A speed=20.4x    frame= 8359 fps=491 q=-0.0 size=N/A time=00:05:48.63 bitrate=N/A speed=20.5x    frame= 8617 fps=491 q=-0.0 size=N/A time=00:05:59.40 bitrate=N/A speed=20.5x    frame= 8815 fps=488 q=-0.0 size=N/A time=00:06:07.65 bitrate=N/A speed=20.4x    frame= 9106 fps=491 q=-0.0 size=N/A time=00:06:19.79 bitrate=N/A speed=20.5x    frame= 9369 fps=491 q=-0.0 size=N/A time=00:06:30.76 bitrate=N/A speed=20.5x    frame= 9668 fps=493 q=-0.0 size=N/A time=00:06:43.23 bitrate=N/A speed=20.6x    frame= 9939 fps=494 q=-0.0 size=N/A time=00:06:54.53 bitrate=N/A speed=20.6x    frame=10212 fps=495 q=-0.0 size=N/A time=00:07:05.92 bitrate=N/A speed=20.6x    frame=10444 fps=494 q=-0.0 size=N/A time=00:07:15.60 bitrate=N/A speed=20.6x    frame=10656 fps=492 q=-0.0 size=N/A time=00:07:24.44 bitrate=N/A speed=20.5x    frame=10900 fps=492 q=-0.0 size=N/A time=00:07:34.62 bitrate=N/A speed=20.5x    frame=11074 fps=488 q=-0.0 size=N/A time=00:07:41.87 bitrate=N/A speed=20.4x    frame=11330 fps=488 q=-0.0 size=N/A time=00:07:52.55 bitrate=N/A speed=20.4x    frame=11593 fps=489 q=-0.0 size=N/A time=00:08:03.52 bitrate=N/A speed=20.4x    frame=11842 fps=489 q=-0.0 size=N/A time=00:08:13.91 bitrate=N/A speed=20.4x    frame=12107 fps=489 q=-0.0 size=N/A time=00:08:24.96 bitrate=N/A speed=20.4x    frame=12335 fps=488 q=-0.0 size=N/A time=00:08:34.47 bitrate=N/A speed=20.4x    frame=12580 fps=488 q=-0.0 size=N/A time=00:08:44.69 bitrate=N/A speed=20.3x    frame=12855 fps=489 q=-0.0 size=N/A time=00:08:56.16 bitrate=N/A speed=20.4x    frame=13129 fps=490 q=-0.0 size=N/A time=00:09:07.58 bitrate=N/A speed=20.4x    frame=13407 fps=490 q=-0.0 size=N/A time=00:09:19.18 bitrate=N/A speed=20.5x    frame=13678 fps=491 q=-0.0 size=N/A time=00:09:30.48 bitrate=N/A speed=20.5x    frame=13944 fps=492 q=-0.0 size=N/A time=00:09:41.58 bitrate=N/A speed=20.5x    frame=14229 fps=493 q=-0.0 size=N/A time=00:09:53.46 bitrate=N/A speed=20.5x    frame=14480 fps=493 q=-0.0 size=N/A time=00:10:03.93 bitrate=N/A speed=20.5x    frame=14765 fps=494 q=-0.0 size=N/A time=00:10:15.82 bitrate=N/A speed=20.6x    frame=15054 fps=495 q=-0.0 size=N/A time=00:10:27.87 bitrate=N/A speed=20.6x    frame=15339 fps=496 q=-0.0 size=N/A time=00:10:39.76 bitrate=N/A speed=20.7x    frame=15614 fps=496 q=-0.0 size=N/A time=00:10:51.23 bitrate=N/A speed=20.7x    frame=15887 fps=497 q=-0.0 size=N/A time=00:11:02.62 bitrate=N/A speed=20.7x    frame=16144 fps=497 q=-0.0 size=N/A time=00:11:13.33 bitrate=N/A speed=20.7x    frame=16398 fps=497 q=-0.0 size=N/A time=00:11:23.93 bitrate=N/A speed=20.7x    frame=16653 fps=497 q=-0.0 size=N/A time=00:11:34.56 bitrate=N/A speed=20.7x    frame=16884 fps=496 q=-0.0 size=N/A time=00:11:44.20 bitrate=N/A speed=20.7x    frame=17144 fps=496 q=-0.0 size=N/A time=00:11:55.04 bitrate=N/A speed=20.7x    frame=17407 fps=496 q=-0.0 size=N/A time=00:12:06.01 bitrate=N/A speed=20.7x    frame=17653 fps=496 q=-0.0 size=N/A time=00:12:16.27 bitrate=N/A speed=20.7x    frame=17934 fps=497 q=-0.0 size=N/A time=00:12:27.99 bitrate=N/A speed=20.7x    frame=18215 fps=497 q=-0.0 size=N/A time=00:12:39.71 bitrate=N/A speed=20.7x    frame=18486 fps=498 q=-0.0 size=N/A time=00:12:51.02 bitrate=N/A speed=20.8x    frame=18769 fps=498 q=-0.0 size=N/A time=00:13:02.82 bitrate=N/A speed=20.8x    frame=19053 fps=499 q=-0.0 size=N/A time=00:13:14.66 bitrate=N/A speed=20.8x    frame=19323 fps=499 q=-0.0 size=N/A time=00:13:25.93 bitrate=N/A speed=20.8x    frame=19595 fps=500 q=-0.0 size=N/A time=00:13:37.27 bitrate=N/A speed=20.8x    frame=19884 fps=501 q=-0.0 size=N/A time=00:13:49.32 bitrate=N/A speed=20.9x    frame=20171 fps=501 q=-0.0 size=N/A time=00:14:01.29 bitrate=N/A speed=20.9x    frame=20418 fps=501 q=-0.0 size=N/A time=00:14:11.60 bitrate=N/A speed=20.9x    frame=20623 fps=500 q=-0.0 size=N/A time=00:14:20.15 bitrate=N/A speed=20.8x    frame=20836 fps=499 q=-0.0 size=N/A time=00:14:29.03 bitrate=N/A speed=20.8x    frame=21056 fps=498 q=-0.0 size=N/A time=00:14:38.21 bitrate=N/A speed=20.8x    frame=21289 fps=497 q=-0.0 size=N/A time=00:14:47.92 bitrate=N/A speed=20.7x    frame=21555 fps=497 q=-0.0 size=N/A time=00:14:59.02 bitrate=N/A speed=20.7x    frame=21782 fps=497 q=-0.0 size=N/A time=00:15:08.49 bitrate=N/A speed=20.7x    frame=22046 fps=497 q=-0.0 size=N/A time=00:15:19.50 bitrate=N/A speed=20.7x    frame=22310 fps=497 q=-0.0 size=N/A time=00:15:30.51 bitrate=N/A speed=20.7x    frame=22607 fps=498 q=-0.0 size=N/A time=00:15:42.90 bitrate=N/A speed=20.8x    frame=22886 fps=498 q=-0.0 size=N/A time=00:15:54.53 bitrate=N/A speed=20.8x    frame=23143 fps=498 q=-0.0 size=N/A time=00:16:05.25 bitrate=N/A speed=20.8x    frame=23409 fps=499 q=-0.0 size=N/A time=00:16:16.35 bitrate=N/A speed=20.8x    frame=23673 fps=499 q=-0.0 size=N/A time=00:16:27.36 bitrate=N/A speed=20.8x    frame=23955 fps=499 q=-0.0 size=N/A time=00:16:39.12 bitrate=N/A speed=20.8x    frame=24193 fps=499 q=-0.0 size=N/A time=00:16:49.04 bitrate=N/A speed=20.8x    frame=24425 fps=498 q=-0.0 size=N/A time=00:16:58.72 bitrate=N/A speed=20.8x    frame=24621 fps=497 q=-0.0 size=N/A time=00:17:06.90 bitrate=N/A speed=20.7x    frame=24871 fps=497 q=-0.0 size=N/A time=00:17:17.32 bitrate=N/A speed=20.7x    frame=25140 fps=497 q=-0.0 size=N/A time=00:17:28.54 bitrate=N/A speed=20.7x    frame=25417 fps=498 q=-0.0 size=N/A time=00:17:40.10 bitrate=N/A speed=20.8x    frame=25563 fps=496 q=-0.0 size=N/A time=00:17:46.19 bitrate=N/A speed=20.7x    frame=25814 fps=495 q=-0.0 size=N/A time=00:17:56.65 bitrate=N/A speed=20.7x    frame=26019 fps=495 q=-0.0 size=N/A time=00:18:05.20 bitrate=N/A speed=20.6x    frame=26282 fps=495 q=-0.0 size=N/A time=00:18:16.17 bitrate=N/A speed=20.6x    frame=26553 fps=495 q=-0.0 size=N/A time=00:18:27.48 bitrate=N/A speed=20.6x    frame=26798 fps=495 q=-0.0 size=N/A time=00:18:37.69 bitrate=N/A speed=20.6x    frame=27040 fps=494 q=-0.0 size=N/A time=00:18:47.79 bitrate=N/A speed=20.6x    frame=27228 fps=493 q=-0.0 size=N/A time=00:18:55.63 bitrate=N/A speed=20.6x    frame=27484 fps=493 q=-0.0 size=N/A time=00:19:06.31 bitrate=N/A speed=20.6x    frame=27735 fps=493 q=-0.0 size=N/A time=00:19:16.78 bitrate=N/A speed=20.6x    frame=27965 fps=493 q=-0.0 size=N/A time=00:19:26.37 bitrate=N/A speed=20.6x    frame=28203 fps=492 q=-0.0 size=N/A time=00:19:36.30 bitrate=N/A speed=20.5x    frame=28437 fps=492 q=-0.0 size=N/A time=00:19:46.05 bitrate=N/A speed=20.5x    frame=28689 fps=492 q=-0.0 size=N/A time=00:19:56.57 bitrate=N/A speed=20.5x    frame=28934 fps=492 q=-0.0 size=N/A time=00:20:06.78 bitrate=N/A speed=20.5x    frame=29173 fps=492 q=-0.0 size=N/A time=00:20:16.75 bitrate=N/A speed=20.5x    frame=29390 fps=491 q=-0.0 size=N/A time=00:20:25.80 bitrate=N/A speed=20.5x    frame=29650 fps=491 q=-0.0 size=N/A time=00:20:36.65 bitrate=N/A speed=20.5x    frame=29910 fps=491 q=-0.0 size=N/A time=00:20:47.49 bitrate=N/A speed=20.5x    frame=30163 fps=491 q=-0.0 size=N/A time=00:20:58.04 bitrate=N/A speed=20.5x    frame=30442 fps=492 q=-0.0 size=N/A time=00:21:09.68 bitrate=N/A speed=20.5x    frame=30719 fps=492 q=-0.0 size=N/A time=00:21:21.23 bitrate=N/A speed=20.5x    frame=30974 fps=492 q=-0.0 size=N/A time=00:21:31.87 bitrate=N/A speed=20.5x    frame=31237 fps=492 q=-0.0 size=N/A time=00:21:42.84 bitrate=N/A speed=20.5x    frame=31499 fps=492 q=-0.0 size=N/A time=00:21:53.77 bitrate=N/A speed=20.5x    frame=31728 fps=492 q=-0.0 size=N/A time=00:22:03.32 bitrate=N/A speed=20.5x    frame=31898 fps=491 q=-0.0 size=N/A time=00:22:10.41 bitrate=N/A speed=20.5x    frame=32077 fps=490 q=-0.0 size=N/A time=00:22:17.87 bitrate=N/A speed=20.4x    frame=32267 fps=489 q=-0.0 size=N/A time=00:22:25.80 bitrate=N/A speed=20.4x    frame=32472 fps=488 q=-0.0 size=N/A time=00:22:34.35 bitrate=N/A speed=20.4x    frame=32658 fps=487 q=-0.0 size=N/A time=00:22:42.11 bitrate=N/A speed=20.3x    frame=32880 fps=487 q=-0.0 size=N/A time=00:22:51.37 bitrate=N/A speed=20.3x    frame=33064 fps=486 q=-0.0 size=N/A time=00:22:59.04 bitrate=N/A speed=20.3x    frame=33202 fps=484 q=-0.0 size=N/A time=00:23:04.80 bitrate=N/A speed=20.2x    frame=33361 fps=483 q=-0.0 size=N/A time=00:23:11.43 bitrate=N/A speed=20.1x    frame=33548 fps=482 q=-0.0 size=N/A time=00:23:19.23 bitrate=N/A speed=20.1x    frame=33759 fps=481 q=-0.0 size=N/A time=00:23:28.03 bitrate=N/A speed=20.1x    frame=34024 fps=481 q=-0.0 size=N/A time=00:23:39.08 bitrate=N/A speed=20.1x    [Parsed_psnr_10 @ 000002184f3f60c0] PSNR y:49.402812 u:50.929976 v:51.249729 average:49.895006 min:39.304548 max:inf
[out#0/null @ 0000021841f8eec0] video:14697KiB audio:267508KiB subtitle:0KiB other streams:0KiB global headers:0KiB muxing overhead: unknown
frame=34204 fps=482 q=-0.0 Lsize=N/A time=00:23:46.59 bitrate=N/A speed=20.1x    
